#!OML:ASF H:\Terrain\Patient Classification 1\Animal1\Tuesday\Animal1.ASF
:FULLY-SPECIFIED
:DEGREES
1344
root 6.6191 16.2733 -3.38877 -1.76197 -48.3169 -2.55981
lowerback -7.92997 -0.908359 -1.49091
upperback -11.6096 -1.37768 2.43111
thorax -7.70995 -0.580958 3.40586
lowerneck -1.17771 2.99027 -2.01069
upperneck 15.1331 2.63547 10.4031
head 4.514 1.70922 3.65898
rclavicle 8.38871e-014 2.46493e-014
rhumerus -12.7873 -30.961 -4.51337
rradius 29.2362
rwrist -66.8817
rhand 3.22744 3.16691
rfingers 7.12502
rthumb 28.6779 -24.6518
lclavicle 8.38871e-014 2.46493e-014
lhumerus -11.5412 39.6764 4.98994
lradius 29.7721
lwrist 13.4003
lhand 51.1081 45.9549
lfingers 7.12502
lthumb 70.6596 399.461
rfemur -15.9582 22.8575 16.574
rtibia 22.1328
rfoot -11.1077 -16.3655
rtoes -12.8706
lfemur 6.46719 -4.82726 -24.2488
ltibia 32.5575
lfoot -15.5222 12.9661
ltoes 2.67882
1345
root 6.62639 16.2751 -3.40249 -1.80256 -48.4621 -2.51229
lowerback -7.87353 -0.829603 -1.57418
upperback -11.5189 -1.26657 2.44682
thorax -7.64733 -0.518407 3.46942
lowerneck -1.2883 2.95522 -2.05391
upperneck 14.9599 2.59721 10.4724
head 4.48044 1.69178 3.68456
rclavicle 5.64548e-014 3.37934e-014
rhumerus -12.1191 -31.4343 -5.22317
rradius 29.209
rwrist -66.2735
rhand 13.1087 5.60944
rfingers 7.12502
rthumb 38.0685 -20.1711
lclavicle 5.64548e-014 3.37934e-014
lhumerus -10.7553 39.0444 5.98229
lradius 30.0752
lwrist 15.5307
lhand 61.1864 45.9142
lfingers 7.12502
lthumb 74.8162 369.233
rfemur -15.9731 22.8847 16.5357
rtibia 21.9583
rfoot -11.0652 -16.31
rtoes -13.3955
lfemur 6.24856 -4.60629 -24.206
ltibia 32.8051
lfoot -15.348 12.9305
ltoes 1.87057
1346
root 6.62561 16.2774 -3.40354 -1.99067 -48.5644 -2.42594
lowerback -7.78404 -0.774626 -1.60428
upperback -11.3834 -1.18705 2.44805
thorax -7.55201 -0.476653 3.48651
lowerneck -1.57867 2.95308 -2.13958
upperneck 14.9968 2.58927 10.5388
head 4.53878 1.69641 3.72583
rclavicle 8.48811e-014 6.36111e-015
rhumerus -11.5802 -32.4872 -5.77686
rradius 29.0168
rwrist -64.4111
rhand 23.0811 8.96539
rfingers 7.12502
rthumb 47.3937 -13.5254
lclavicle 8.48811e-014 6.36111e-015
lhumerus -10.4287 38.0615 6.46305
lradius 30.5406
lwrist 18.2996
lhand 70.459 48.6839
lfingers 7.12502
lthumb 73.4528 339.184
rfemur -15.7896 22.7682 16.5456
rtibia 21.8492
rfoot -11.066 -16.2512
rtoes -14.0686
lfemur 6.30436 -4.52141 -24.2864
ltibia 32.9929
lfoot -15.5717 12.7918
ltoes 2.95674
1347
root 6.62416 16.2772 -3.40476 -1.92465 -48.6259 -2.57772
lowerback -7.70962 -0.740482 -1.47378
upperback -11.348 -1.14117 2.4996
thorax -7.5585 -0.461161 3.46918
lowerneck -1.66925 2.98484 -2.26631
upperneck 15.0912 2.627 10.5915
head 4.57676 1.71584 3.76893
rclavicle 2.46493e-014 1.47101e-014
rhumerus -11.224 -33.2385 -6.07936
rradius 28.7991
rwrist -62.801
rhand 29.8896 11.7917
rfingers 7.12502
rthumb 53.6076 -7.30823
lclavicle 2.46493e-014 1.47101e-014
lhumerus -10.4031 36.8407 6.48091
lradius 30.7422
lwrist 21.3513
lhand 78.0743 55.1666
lfingers 7.12502
lthumb 69.1442 326.881
rfemur -15.6803 22.6263 16.7077
rtibia 21.7816
rfoot -10.8917 -16.3283
rtoes -15.5586
lfemur 6.313 -4.48432 -24.1854
ltibia 33.1435
lfoot -15.7977 12.7145
ltoes 3.77867
1348
root 6.62607 16.2686 -3.4158 -1.80408 -48.623 -2.7267
lowerback -7.49624 -0.711012 -1.43837
upperback -11.3786 -1.09997 2.56295
thorax -7.71657 -0.437119 3.52289
lowerneck -1.57117 2.98342 -2.41595
upperneck 15.0203 2.63577 10.6375
head 4.53371 1.71062 3.80507
rclavicle -1.308e-013 -8.74653e-014
rhumerus -11.2136 -33.6017 -5.96962
rradius 28.7646
rwrist -62.5197
rhand 31.4913 13.353
rfingers 7.12502
rthumb 55.0425 -4.75493
lclavicle -1.308e-013 -8.74653e-014
lhumerus -10.5523 35.7315 6.314
lradius 30.9031
lwrist 24.2637
lhand 83.6673 56.1857
lfingers 7.12502
lthumb 66.5242 319.239
rfemur -15.6608 22.5284 16.8406
rtibia 21.719
rfoot -10.509 -16.6468
rtoes -17.4009
lfemur 6.2224 -4.34062 -24.007
ltibia 33.2553
lfoot -15.5735 12.9197
ltoes 1.34952
1349
root 6.62771 16.2659 -3.42605 -1.75123 -48.5766 -2.73597
lowerback -7.2708 -0.70468 -1.53023
upperback -11.3761 -1.08605 2.60702
thorax -7.84227 -0.417438 3.62648
lowerneck -1.41772 2.98929 -2.49323
upperneck 14.7419 2.67923 10.6043
head 4.41899 1.7169 3.79942
rclavicle 8.07066e-014 3.33958e-014
rhumerus -11.6086 -34.0712 -5.5035
rradius 28.9391
rwrist -63.4653
rhand 29.7996 13.8458
rfingers 7.12502
rthumb 53.5267 -5.30726
lclavicle 8.07066e-014 3.33958e-014
lhumerus -10.9552 36.0835 5.9553
lradius 31.2513
lwrist 25.7841
lhand 85.6841 57.0358
lfingers 7.12502
lthumb 65.6862 317.569
rfemur -15.7233 22.4935 16.8372
rtibia 21.7
rfoot -10.0968 -17.0719
rtoes -18.6345
lfemur 6.08185 -4.25757 -23.9363
ltibia 33.3619
lfoot -15.467 12.9558
ltoes 0.588518
1350
root 6.62791 16.2674 -3.43448 -1.55836 -48.5066 -2.80262
lowerback -7.20952 -0.685033 -1.55978
upperback -11.3142 -1.05443 2.642
thorax -7.80977 -0.397341 3.67988
lowerneck -1.42038 2.98953 -2.63947
upperneck 14.443 2.71207 10.6488
head 4.32262 1.72294 3.8318
rclavicle -5.58585e-014 -4.6118e-014
rhumerus -12.4869 -34.2193 -4.57457
rradius 29.2204
rwrist -65.5454
rhand 27.4217 12.5716
rfingers 7.12502
rthumb 51.3747 -7.89832
lclavicle -5.58585e-014 -4.6118e-014
lhumerus -11.3635 37.4717 5.44616
lradius 31.3475
lwrist 26.2002
lhand 85.7538 57.6039
lfingers 7.12502
lthumb 66.4041 318.195
rfemur -15.9001 22.5153 16.8264
rtibia 21.7056
rfoot -9.14157 -17.6471
rtoes -19.9558
lfemur 5.82942 -4.27598 -23.8388
ltibia 33.4762
lfoot -15.5862 12.7807
ltoes 1.72959
1351
root 6.62733 16.2663 -3.44203 -1.51128 -48.4465 -2.67934
lowerback -7.18094 -0.630153 -1.68566
upperback -11.2184 -0.976135 2.60335
thorax -7.72472 -0.350581 3.70762
lowerneck -1.57987 2.93176 -2.58564
upperneck 14.3192 2.66222 10.5011
head 4.32 1.6961 3.77531
rclavicle 3.91606e-014 3.18055e-015
rhumerus -13.7423 -34.4968 -3.22883
rradius 29.4382
rwrist -67.4852
rhand 24.752 9.53474
rfingers 7.12502
rthumb 48.9333 -12.2306
lclavicle 3.91606e-014 3.18055e-015
lhumerus -11.5837 40.489 4.81461
lradius 30.873
lwrist 24.279
lhand 84.8506 57.6323
lfingers 7.12502
lthumb 67.4979 319.511
rfemur -15.9832 22.5525 16.678
rtibia 21.582
rfoot -8.5708 -17.9696
rtoes -19.7517
lfemur 5.58433 -4.11915 -23.8535
ltibia 33.5876
lfoot -15.5149 12.8012
ltoes 0.930767
1352
root 6.62919 16.2664 -3.45078 -1.44576 -48.3723 -2.68504
lowerback -6.95169 -0.608704 -1.7319
upperback -11.1201 -0.942198 2.59459
thorax -7.74796 -0.32826 3.72607
lowerneck -1.70416 2.87678 -2.33621
upperneck 14.1547 2.63103 10.1594
head 4.3054 1.67641 3.62482
rclavicle -3.55825e-014 1.98785e-015
rhumerus -15.1144 -35.5049 -1.70796
rradius 29.4436
rwrist -67.911
rhand 21.2401 7.28672
rfingers 7.12502
rthumb 45.6885 -15.9364
lclavicle -3.55825e-014 1.98785e-015
lhumerus -12.4175 43.984 3.44429
lradius 30.2931
lwrist 20.7441
lhand 83.8828 57.2856
lfingers 7.12502
lthumb 67.8036 320.421
rfemur -15.9709 22.671 16.6447
rtibia 21.3831
rfoot -9.29923 -17.9237
rtoes -17.3853
lfemur 5.40928 -4.01725 -23.795
ltibia 33.6957
lfoot -15.4364 12.9024
ltoes -0.0708372
1353
root 6.63203 16.2707 -3.46025 -0.96202 -48.2029 -3.15313
lowerback -6.72858 -0.624311 -1.40276
upperback -11.0242 -0.9609 2.64433
thorax -7.76766 -0.359376 3.5952
lowerneck -1.693 2.88158 -2.27788
upperneck 13.6951 2.69035 10.039
head 4.16419 1.69421 3.56933
rclavicle 3.37934e-014 -2.78299e-015
rhumerus -16.7252 -35.2935 -0.0593447
rradius 29.4962
rwrist -68.5736
rhand 16.4665 6.76002
rfingers 7.12502
rthumb 41.2302 -18.0827
lclavicle 3.37934e-014 -2.78299e-015
lhumerus -14.0541 45.0542 1.31543
lradius 29.9835
lwrist 18.978
lhand 82.2883 57.0337
lfingers 7.12502
lthumb 68.1671 322.354
rfemur -16.0539 22.8162 16.916
rtibia 21.2516
rfoot -9.7697 -18.177
rtoes -15.8542
lfemur 5.16727 -4.18031 -23.4366
ltibia 33.7431
lfoot -15.4078 13.0454
ltoes -0.582471
1354
root 6.63103 16.2767 -3.46725 -0.502229 -48.007 -3.33747
lowerback -6.67735 -0.666617 -1.29146
upperback -11.0392 -1.01865 2.63886
thorax -7.81003 -0.396198 3.5282
lowerneck -1.483 2.91049 -2.21144
upperneck 13.1888 2.77478 9.99172
head 3.97262 1.72187 3.53152
rclavicle 2.36554e-014 -5.1684e-015
rhumerus -18.5887 -33.9507 1.67428
rradius 29.6557
rwrist -69.6737
rhand 11.4586 6.73608
rfingers 7.12502
rthumb 36.5084 -19.4539
lclavicle 2.36554e-014 -5.1684e-015
lhumerus -15.9165 45.0778 -0.991175
lradius 29.8238
lwrist 17.9388
lhand 74.8773 56.5162
lfingers 7.12502
lthumb 71.198 335.04
rfemur -16.3014 22.7921 16.9176
rtibia 21.1274
rfoot -9.87518 -18.461
rtoes -15.5824
lfemur 4.78425 -4.32763 -23.2741
ltibia 33.743
lfoot -15.0873 13.4073
ltoes -3.24764
1355
root 6.62819 16.2841 -3.47112 -0.487943 -47.8909 -2.89395
lowerback -6.63235 -0.649507 -1.63544
upperback -11.0721 -0.996422 2.5257
thorax -7.87317 -0.361633 3.60323
lowerneck -1.18553 2.8622 -2.01842
upperneck 12.5674 2.77853 9.75012
head 3.74382 1.70163 3.40683
rclavicle 1.25234e-014 1.31198e-014
rhumerus -20.8077 -33.8686 3.8735
rradius 29.5365
rwrist -69.0183
rhand 7.45304 6.89612
rfingers 7.12502
rthumb 32.7068 -20.1655
lclavicle 1.25234e-014 1.31198e-014
lhumerus -17.8106 45.2184 -3.25429
lradius 29.7311
lwrist 16.4096
lhand 68.9483 52.2713
lfingers 7.12502
lthumb 74.0217 347.571
rfemur -16.5418 22.6663 16.4543
rtibia 20.9142
rfoot -10.1018 -18.3659
rtoes -16.0114
lfemur 4.42156 -4.42351 -23.5725
ltibia 33.7119
lfoot -14.8599 13.5916
ltoes -4.43065
1356
root 6.62579 16.2933 -3.47396 -0.185552 -47.7948 -2.73525
lowerback -6.70338 -0.539355 -1.72021
upperback -10.961 -0.84549 2.47398
thorax -7.72014 -0.284129 3.59135
lowerneck -1.29081 2.76365 -2.13117
upperneck 11.8477 2.73515 9.55515
head 3.54988 1.65677 3.35232
rclavicle -1.0138e-014 -1.55052e-014
rhumerus -23.2814 -33.7729 6.53708
rradius 29.3722
rwrist -68.408
rhand 3.65302 6.85613
rfingers 7.12502
rthumb 29.0844 -20.8931
lclavicle -1.0138e-014 -1.55052e-014
lhumerus -19.7596 45.3746 -5.39515
lradius 29.6901
lwrist 14.7222
lhand 62.3624 48.5372
lfingers 7.12502
lthumb 74.9424 367.528
rfemur -16.911 22.676 16.1593
rtibia 20.7296
rfoot -9.59971 -18.3553
rtoes -18.0128
lfemur 3.99478 -4.54862 -23.6455
ltibia 33.5859
lfoot -15.1006 13.4157
ltoes -2.16973
1357
root 6.62014 16.3047 -3.47554 0.437417 -47.6165 -3.17311
lowerback -6.60746 -0.528841 -1.44891
upperback -10.8545 -0.824653 2.59781
thorax -7.65785 -0.28919 3.56901
lowerneck -1.36975 2.79573 -2.25076
upperneck 10.9169 2.90895 9.10434
head 3.65402 1.68178 3.58238
rclavicle 3.16068e-014 3.18055e-015
rhumerus -25.4667 -32.9145 8.90416
rradius 29.2936
rwrist -68.3633
rhand -0.883244 6.29724
rfingers 7.12502
rthumb 24.7441 -22.1224
lclavicle 3.16068e-014 3.18055e-015
lhumerus -22.0711 44.9109 -7.88408
lradius 29.5872
lwrist 13.2787
lhand 55.1076 46.0029
lfingers 7.12502
lthumb 72.8724 389.36
rfemur -17.1536 22.9121 16.356
rtibia 20.6582
rfoot -9.3117 -18.5514
rtoes -18.5243
lfemur 3.76642 -4.80282 -23.2745
ltibia 33.3424
lfoot -15.6089 13.006
ltoes 3.31872
1358
root 6.61071 16.3143 -3.47409 0.587609 -47.4353 -3.34631
lowerback -6.31499 -0.532381 -1.27219
upperback -10.6788 -0.825952 2.54116
thorax -7.62989 -0.304072 3.4096
lowerneck -1.45118 2.81841 -2.11166
upperneck 10.3637 2.98177 9.04455
head 3.47283 1.71564 3.51916
rclavicle 8.20981e-014 4.96962e-014
rhumerus -28.0318 -32.8539 11.3646
rradius 29.0958
rwrist -67.4047
rhand -5.74392 5.57092
rfingers 7.12502
rthumb 20.0785 -23.4116
lclavicle 8.20981e-014 4.96962e-014
lhumerus -24.1935 43.9204 -10.4657
lradius 29.3295
lwrist 12.1217
lhand 47.3611 45.0558
lfingers 7.12502
lthumb 68.1368 405.954
rfemur -17.0662 23.1919 16.4789
rtibia 20.6217
rfoot -10.1208 -18.1705
rtoes -15.6524
lfemur 3.91652 -5.20671 -23.1857
ltibia 33.055
lfoot -16.0622 12.7048
ltoes 9.56282
